# Blender v2.79 (sub 0) OBJ File: ''
# www.blender.org
mtllib ConeA.mtl
o Cone
v -0.195089 2.325954 -1.100000
v -0.382682 2.269048 -1.100000
v -0.555569 2.176639 -1.100000
v -0.707106 2.052276 -1.100000
v -0.831469 1.900740 -1.100000
v -0.923879 1.727853 -1.100000
v -0.980785 1.540260 -1.100000
v -1.000000 1.345169 -1.100000
v -0.980785 1.150079 -1.100000
v -0.923880 0.962486 -1.100000
v -0.831470 0.789599 -1.100000
v -0.707107 0.638062 -1.100000
v -0.555571 0.513699 -1.100000
v -0.382684 0.421289 -1.100000
v -0.195091 0.364383 -1.100000
v -0.000000 0.345168 -1.100000
v 0.195090 0.364383 -1.100000
v 0.382683 0.421289 -1.100000
v 0.555570 0.513699 -1.100000
v 0.707107 0.638062 -1.100000
v 0.831470 0.789598 -1.100000
v 0.923880 0.962485 -1.100000
v 0.980785 1.150078 -1.100000
v 1.000000 1.345168 -1.100000
v 0.980785 1.540259 -1.100000
v 0.923880 1.727852 -1.100000
v 0.831470 1.900739 -1.100000
v 0.707107 2.052275 -1.100000
v 0.555570 2.176638 -1.100000
v 0.382683 2.269048 -1.100000
v 0.195090 2.325954 -1.100000
v 0.000000 1.345168 1.100000
v 0.000000 2.345168 -1.100000
vt 0.713284 0.531804
vt 0.758364 0.531804
vt 0.802577 0.540599
vt 0.844225 0.557850
vt 0.881707 0.582895
vt 0.913583 0.614771
vt 0.938627 0.652252
vt 0.955878 0.693900
vt 0.964673 0.738113
vt 0.964673 0.783192
vt 0.955878 0.827405
vt 0.938627 0.869053
vt 0.913583 0.906536
vt 0.881707 0.938412
vt 0.844224 0.963456
vt 0.802576 0.980708
vt 0.758363 0.989502
vt 0.713283 0.989502
vt 0.669070 0.980707
vt 0.627422 0.963456
vt 0.589940 0.938411
vt 0.558064 0.906535
vt 0.533019 0.869053
vt 0.515768 0.827405
vt 0.506974 0.783191
vt 0.506974 0.738112
vt 0.515769 0.693899
vt 0.533020 0.652252
vt 0.558065 0.614770
vt 0.589941 0.582894
vt 0.627423 0.557849
vt 0.669072 0.540598
vt 0.050458 0.736237
vt 0.514300 0.514313
vt 0.071677 0.776009
vt 0.032803 0.694758
vt 0.018849 0.651892
vt 0.008703 0.607969
vt 0.002443 0.563327
vt 0.000117 0.518307
vt 0.001744 0.473257
vt 0.007309 0.428522
vt 0.016772 0.384447
vt 0.030058 0.341370
vt 0.047067 0.299622
vt 0.067666 0.259524
vt 0.091698 0.221385
vt 0.118979 0.185497
vt 0.149298 0.152137
vt 0.182422 0.121560
vt 0.218097 0.094001
vt 0.256049 0.069674
vt 0.295985 0.048763
vt 0.337599 0.031431
vt 0.380572 0.017811
vt 0.424572 0.008006
vt 0.469262 0.002093
vt 0.514300 0.000117
vt 0.303242 0.983199
vt 0.345121 0.999883
vt 0.262986 0.962912
vt 0.224661 0.939176
vt 0.188562 0.912175
vt 0.154967 0.882116
vt 0.124134 0.849231
vt 0.096299 0.813771
vn 0.0000 0.8549 -0.5188
vn 0.1668 0.8385 -0.5188
vn 0.3272 0.7898 -0.5188
vn 0.4750 0.7108 -0.5188
vn 0.6045 0.6045 -0.5188
vn 0.7108 0.4750 -0.5188
vn 0.7898 0.3272 -0.5188
vn 0.8385 0.1668 -0.5188
vn 0.8549 0.0000 -0.5188
vn 0.8385 -0.1668 -0.5188
vn 0.7898 -0.3272 -0.5188
vn 0.7108 -0.4750 -0.5188
vn 0.6045 -0.6045 -0.5188
vn 0.4750 -0.7108 -0.5188
vn 0.3272 -0.7898 -0.5188
vn 0.1668 -0.8385 -0.5188
vn 0.0000 -0.8549 -0.5188
vn -0.1668 -0.8385 -0.5188
vn -0.3272 -0.7898 -0.5188
vn -0.4750 -0.7108 -0.5188
vn -0.6045 -0.6045 -0.5188
vn -0.7108 -0.4750 -0.5188
vn -0.7898 -0.3272 -0.5188
vn -0.8385 -0.1668 -0.5188
vn -0.8549 0.0000 -0.5188
vn -0.8385 0.1668 -0.5188
vn -0.7898 0.3272 -0.5188
vn -0.7108 0.4750 -0.5188
vn -0.6045 0.6045 -0.5188
vn -0.4750 0.7108 -0.5188
vn -0.3272 0.7898 -0.5188
vn -0.1668 0.8385 -0.5188
vn 0.0000 0.0000 1.0000
usemtl None
s 1
f 33/1/1 31/2/2 30/3/3 29/4/4 28/5/5 27/6/6 26/7/7 25/8/8 24/9/9 23/10/10 22/11/11 21/12/12 20/13/13 19/14/14 18/15/15 17/16/16 16/17/17 15/18/18 14/19/19 13/20/20 12/21/21 11/22/22 10/23/23 9/24/24 8/25/25 7/26/26 6/27/27 5/28/28 4/29/29 3/30/30 2/31/31 1/32/32
f 1/33/32 32/34/33 33/35/1
f 2/36/31 32/34/33 1/33/32
f 3/37/30 32/34/33 2/36/31
f 4/38/29 32/34/33 3/37/30
f 5/39/28 32/34/33 4/38/29
f 6/40/27 32/34/33 5/39/28
f 7/41/26 32/34/33 6/40/27
f 8/42/25 32/34/33 7/41/26
f 9/43/24 32/34/33 8/42/25
f 10/44/23 32/34/33 9/43/24
f 11/45/22 32/34/33 10/44/23
f 12/46/21 32/34/33 11/45/22
f 13/47/20 32/34/33 12/46/21
f 14/48/19 32/34/33 13/47/20
f 15/49/18 32/34/33 14/48/19
f 16/50/17 32/34/33 15/49/18
f 17/51/16 32/34/33 16/50/17
f 18/52/15 32/34/33 17/51/16
f 19/53/14 32/34/33 18/52/15
f 20/54/13 32/34/33 19/53/14
f 21/55/12 32/34/33 20/54/13
f 22/56/11 32/34/33 21/55/12
f 23/57/10 32/34/33 22/56/11
f 24/58/9 32/34/33 23/57/10
f 25/59/8 32/34/33 24/60/9
f 26/61/7 32/34/33 25/59/8
f 27/62/6 32/34/33 26/61/7
f 28/63/5 32/34/33 27/62/6
f 29/64/4 32/34/33 28/63/5
f 30/65/3 32/34/33 29/64/4
f 31/66/2 32/34/33 30/65/3
f 33/35/1 32/34/33 31/66/2
