<?xml version="1.0" standalone="no"?>
<!DOCTYPE svg PUBLIC "-//W3C//DTD SVG 20010904//EN"
 "http://www.w3.org/TR/2001/REC-SVG-20010904/DTD/svg10.dtd">
<svg version="1.0" xmlns="http://www.w3.org/2000/svg"
 width="1000.000000pt" height="1000.000000pt" viewBox="0 0 1000.000000 1000.000000"
 preserveAspectRatio="xMidYMid meet">
<metadata>
Created by potrace 1.11, written by Peter Selinger 2001-2013
</metadata>
<g transform="translate(0.000000,1000.000000) scale(0.100000,-0.100000)"
fill="#000000" stroke="none">
<path d="M1175 7139 c-17 -5 -44 -22 -60 -39 l-30 -31 -1 -2214 c-1 -2121 0
-2216 17 -2244 40 -65 41 -66 378 -67 181 0 318 4 336 10 34 11 42 18 69 60
18 28 18 80 18 1378 0 741 3 1348 7 1348 4 0 322 -315 706 -700 578 -578 707
-702 737 -710 42 -12 74 -10 102 7 10 5 335 327 722 713 761 761 716 723 703
602 -3 -29 -1 -55 3 -58 5 -3 6 -9 3 -13 -4 -7 -5 -77 -4 -186 0 -11 0 -74 0
-140 0 -66 1 -129 1 -140 0 -11 0 -56 -1 -100 0 -44 0 -87 0 -95 0 -8 0 -69 0
-135 0 -66 0 -127 0 -135 0 -8 0 -44 0 -80 0 -36 0 -74 0 -85 0 -11 0 -85 0
-165 0 -80 1 -154 1 -165 0 -11 0 -56 -1 -100 0 -44 0 -87 0 -95 0 -8 0 -69 0
-135 0 -66 0 -127 0 -135 0 -8 0 -44 0 -80 0 -36 0 -72 0 -80 0 -8 0 -73 0
-145 -1 -71 -1 -170 -1 -219 0 -48 -2 -92 -5 -96 -3 -5 -1 -11 5 -15 5 -3 10
-14 10 -25 0 -16 59 -78 78 -81 4 -1 147 -2 317 -3 332 -2 338 -2 385 49 l25
27 3 2208 c1 1372 -1 2218 -7 2233 -5 14 -26 37 -45 52 -42 32 -103 36 -143 9
-15 -9 -494 -484 -1066 -1055 -572 -572 -1043 -1039 -1047 -1039 -4 0 -477
470 -1051 1043 -574 574 -1053 1049 -1065 1055 -31 16 -65 20 -99 11z"/>
<path d="M8303 7125 c-16 -11 -264 -255 -553 -542 -1610 -1601 -1560 -1550
-1562 -1580 0 -15 -2 -35 -3 -43 -1 -8 4 -25 10 -38 15 -30 2355 -2372 2372
-2373 90 -8 94 -5 320 220 230 231 245 253 217 321 -9 20 -375 394 -939 958
l-925 925 410 406 c1083 1074 1193 1185 1207 1219 30 72 21 86 -215 323 -215
215 -217 217 -264 221 -36 2 -55 -2 -75 -17z"/>
</g>
</svg>
