# Blender v2.79 (sub 0) OBJ File: ''
# www.blender.org
mtllib CylinderC.mtl
o Cylinder
v 0.000000 -1.386351 -1.000000
v 0.000000 2.613649 -1.000000
v 0.195090 -1.386351 -0.980785
v 0.195090 2.613649 -0.980785
v 0.382683 -1.386351 -0.923880
v 0.382683 2.613649 -0.923880
v 0.555570 -1.386351 -0.831470
v 0.555570 2.613649 -0.831470
v 0.707107 -1.386351 -0.707107
v 0.707107 2.613649 -0.707107
v 0.831470 -1.386351 -0.555570
v 0.831470 2.613649 -0.555570
v 0.923880 -1.386351 -0.382683
v 0.923880 2.613649 -0.382683
v 0.980785 -1.386351 -0.195090
v 0.980785 2.613649 -0.195090
v 1.000000 -1.386351 -0.000000
v 1.000000 2.613649 -0.000000
v 0.980785 -1.386351 0.195090
v 0.980785 2.613649 0.195090
v 0.923880 -1.386351 0.382683
v 0.923880 2.613649 0.382683
v 0.831470 -1.386351 0.555570
v 0.831470 2.613649 0.555570
v 0.707107 -1.386351 0.707107
v 0.707107 2.613649 0.707107
v 0.555570 -1.386351 0.831470
v 0.555570 2.613649 0.831470
v 0.382683 -1.386351 0.923880
v 0.382683 2.613649 0.923880
v 0.195090 -1.386351 0.980785
v 0.195090 2.613649 0.980785
v -0.000000 -1.386351 1.000000
v -0.000000 2.613649 1.000000
v -0.195091 -1.386351 0.980785
v -0.195091 2.613649 0.980785
v -0.382684 -1.386351 0.923879
v -0.382684 2.613649 0.923879
v -0.555571 -1.386351 0.831469
v -0.555571 2.613649 0.831469
v -0.707107 -1.386351 0.707106
v -0.707107 2.613649 0.707106
v -0.831470 -1.386351 0.555570
v -0.831470 2.613649 0.555570
v -0.923880 -1.386351 0.382683
v -0.923880 2.613649 0.382683
v -0.980785 -1.386351 0.195089
v -0.980785 2.613649 0.195089
v -1.000000 -1.386351 -0.000001
v -1.000000 2.613649 -0.000001
v -0.980785 -1.386351 -0.195091
v -0.980785 2.613649 -0.195091
v -0.923879 -1.386351 -0.382684
v -0.923879 2.613649 -0.382684
v -0.831469 -1.386351 -0.555571
v -0.831469 2.613649 -0.555571
v -0.707106 -1.386351 -0.707108
v -0.707106 2.613649 -0.707108
v -0.555569 -1.386351 -0.831470
v -0.555569 2.613649 -0.831470
v -0.382682 -1.386351 -0.923880
v -0.382682 2.613649 -0.923880
v -0.195089 -1.386351 -0.980786
v -0.195089 2.613649 -0.980786
vt 0.250060 0.000120
vt 0.250059 0.318864
vt 0.218817 0.318864
vt 0.218818 0.000120
vt 0.187575 0.318864
vt 0.187575 0.000120
vt 0.156332 0.318864
vt 0.156333 0.000120
vt 0.125090 0.318864
vt 0.125090 0.000120
vt 0.093847 0.318864
vt 0.093848 0.000120
vt 0.062605 0.318864
vt 0.062605 0.000120
vt 0.031362 0.318864
vt 0.031362 0.000120
vt 0.000120 0.318864
vt 0.000120 0.000120
vt 0.999880 0.000125
vt 0.999876 0.318869
vt 0.968634 0.318869
vt 0.968638 0.000125
vt 0.937392 0.318868
vt 0.937395 0.000125
vt 0.906149 0.318868
vt 0.906153 0.000124
vt 0.874907 0.318868
vt 0.874910 0.000124
vt 0.843665 0.318868
vt 0.843668 0.000124
vt 0.812422 0.318867
vt 0.812425 0.000124
vt 0.781180 0.318867
vt 0.781183 0.000123
vt 0.749938 0.318867
vt 0.749940 0.000123
vt 0.718695 0.318867
vt 0.718698 0.000123
vt 0.687453 0.318866
vt 0.687455 0.000122
vt 0.656210 0.318866
vt 0.656213 0.000122
vt 0.624968 0.318866
vt 0.624970 0.000122
vt 0.593726 0.318866
vt 0.593728 0.000122
vt 0.562483 0.318866
vt 0.562485 0.000122
vt 0.531241 0.318865
vt 0.530826 0.000121
vt 0.499998 0.318865
vt 0.500000 0.000121
vt 0.468756 0.318865
vt 0.468758 0.000121
vt 0.437514 0.318865
vt 0.437515 0.000121
vt 0.406271 0.318865
vt 0.406273 0.000121
vt 0.375029 0.318865
vt 0.375030 0.000121
vt 0.343786 0.318865
vt 0.343788 0.000121
vt 0.312544 0.318865
vt 0.312545 0.000120
vt 0.178046 0.991901
vt 0.146804 0.991901
vt 0.116162 0.985806
vt 0.087298 0.973850
vt 0.061320 0.956493
vt 0.039229 0.934401
vt 0.021871 0.908425
vt 0.009915 0.879561
vt 0.003820 0.848919
vt 0.003820 0.817676
vt 0.009915 0.787034
vt 0.021871 0.758170
vt 0.039228 0.732192
vt 0.061320 0.710101
vt 0.087297 0.692743
vt 0.116161 0.680787
vt 0.146804 0.674692
vt 0.178046 0.674692
vt 0.208688 0.680787
vt 0.237553 0.692743
vt 0.263530 0.710101
vt 0.285622 0.732193
vt 0.302979 0.758170
vt 0.314935 0.787034
vt 0.321030 0.817676
vt 0.321030 0.848919
vt 0.314935 0.879561
vt 0.302979 0.908425
vt 0.285621 0.934402
vt 0.263530 0.956493
vt 0.237552 0.973850
vt 0.208688 0.985806
vt 0.281302 0.318865
vt 0.281302 0.000120
vt 0.789375 0.654149
vt 0.820617 0.654149
vt 0.851259 0.660245
vt 0.880123 0.672201
vt 0.906100 0.689558
vt 0.928192 0.711650
vt 0.945549 0.737627
vt 0.957505 0.766491
vt 0.963600 0.797133
vt 0.963600 0.828375
vt 0.957505 0.859017
vt 0.945550 0.887881
vt 0.928192 0.913858
vt 0.906100 0.935950
vt 0.880123 0.953308
vt 0.851259 0.965264
vt 0.820616 0.971359
vt 0.789374 0.971359
vt 0.758731 0.965263
vt 0.729867 0.953307
vt 0.703890 0.935950
vt 0.681798 0.913858
vt 0.664441 0.887881
vt 0.652485 0.859016
vt 0.646390 0.828374
vt 0.646391 0.797132
vt 0.652486 0.766490
vt 0.664442 0.737626
vt 0.681799 0.711649
vt 0.703891 0.689557
vt 0.729868 0.672200
vt 0.758733 0.660244
vn 0.0000 -0.6857 -0.7279
vn 0.0000 0.6857 -0.7279
vn 0.1420 0.6857 -0.7139
vn 0.1420 -0.6857 -0.7139
vn 0.2785 0.6857 -0.6725
vn 0.2785 -0.6857 -0.6725
vn 0.4044 0.6857 -0.6052
vn 0.4044 -0.6857 -0.6052
vn 0.5147 0.6857 -0.5147
vn 0.5147 -0.6857 -0.5147
vn 0.6052 0.6857 -0.4044
vn 0.6052 -0.6857 -0.4044
vn 0.6725 0.6857 -0.2785
vn 0.6725 -0.6857 -0.2785
vn 0.7139 0.6857 -0.1420
vn 0.7139 -0.6857 -0.1420
vn 0.7279 0.6857 0.0000
vn 0.7279 -0.6857 0.0000
vn 0.7139 0.6857 0.1420
vn 0.7139 -0.6857 0.1420
vn 0.6725 0.6857 0.2785
vn 0.6725 -0.6857 0.2785
vn 0.6052 0.6857 0.4044
vn 0.6052 -0.6857 0.4044
vn 0.5147 0.6857 0.5147
vn 0.5147 -0.6857 0.5147
vn 0.4044 0.6857 0.6052
vn 0.4044 -0.6857 0.6052
vn 0.2785 0.6857 0.6725
vn 0.2785 -0.6857 0.6725
vn 0.1420 0.6857 0.7139
vn 0.1420 -0.6857 0.7139
vn 0.0000 0.6857 0.7279
vn 0.0000 -0.6857 0.7279
vn -0.1420 0.6857 0.7139
vn -0.1420 -0.6857 0.7139
vn -0.2785 0.6857 0.6725
vn -0.2785 -0.6857 0.6725
vn -0.4044 0.6857 0.6052
vn -0.4044 -0.6857 0.6052
vn -0.5147 0.6857 0.5147
vn -0.5147 -0.6857 0.5147
vn -0.6052 0.6857 0.4044
vn -0.6052 -0.6857 0.4044
vn -0.6725 0.6857 0.2785
vn -0.6725 -0.6857 0.2785
vn -0.7139 0.6857 0.1420
vn -0.7139 -0.6857 0.1420
vn -0.7279 0.6857 0.0000
vn -0.7279 -0.6857 0.0000
vn -0.7139 0.6857 -0.1420
vn -0.7139 -0.6857 -0.1420
vn -0.6725 0.6857 -0.2785
vn -0.6725 -0.6857 -0.2785
vn -0.6052 0.6857 -0.4044
vn -0.6052 -0.6857 -0.4044
vn -0.5147 0.6857 -0.5147
vn -0.5147 -0.6857 -0.5147
vn -0.4044 0.6857 -0.6052
vn -0.4044 -0.6857 -0.6052
vn -0.2785 0.6857 -0.6725
vn -0.2785 -0.6857 -0.6725
vn -0.1420 0.6857 -0.7139
vn -0.1420 -0.6857 -0.7139
usemtl None
s 1
f 1/1/1 2/2/2 4/3/3 3/4/4
f 3/4/4 4/3/3 6/5/5 5/6/6
f 5/6/6 6/5/5 8/7/7 7/8/8
f 7/8/8 8/7/7 10/9/9 9/10/10
f 9/10/10 10/9/9 12/11/11 11/12/12
f 11/12/12 12/11/11 14/13/13 13/14/14
f 13/14/14 14/13/13 16/15/15 15/16/16
f 15/16/16 16/15/15 18/17/17 17/18/18
f 17/19/18 18/20/17 20/21/19 19/22/20
f 19/22/20 20/21/19 22/23/21 21/24/22
f 21/24/22 22/23/21 24/25/23 23/26/24
f 23/26/24 24/25/23 26/27/25 25/28/26
f 25/28/26 26/27/25 28/29/27 27/30/28
f 27/30/28 28/29/27 30/31/29 29/32/30
f 29/32/30 30/31/29 32/33/31 31/34/32
f 31/34/32 32/33/31 34/35/33 33/36/34
f 33/36/34 34/35/33 36/37/35 35/38/36
f 35/38/36 36/37/35 38/39/37 37/40/38
f 37/40/38 38/39/37 40/41/39 39/42/40
f 39/42/40 40/41/39 42/43/41 41/44/42
f 41/44/42 42/43/41 44/45/43 43/46/44
f 43/46/44 44/45/43 46/47/45 45/48/46
f 45/48/46 46/47/45 48/49/47 47/50/48
f 47/50/48 48/49/47 50/51/49 49/52/50
f 49/52/50 50/51/49 52/53/51 51/54/52
f 51/54/52 52/53/51 54/55/53 53/56/54
f 53/56/54 54/55/53 56/57/55 55/58/56
f 55/58/56 56/57/55 58/59/57 57/60/58
f 57/60/58 58/59/57 60/61/59 59/62/60
f 59/62/60 60/61/59 62/63/61 61/64/62
f 4/65/3 2/66/2 64/67/63 62/68/61 60/69/59 58/70/57 56/71/55 54/72/53 52/73/51 50/74/49 48/75/47 46/76/45 44/77/43 42/78/41 40/79/39 38/80/37 36/81/35 34/82/33 32/83/31 30/84/29 28/85/27 26/86/25 24/87/23 22/88/21 20/89/19 18/90/17 16/91/15 14/92/13 12/93/11 10/94/9 8/95/7 6/96/5
f 61/64/62 62/63/61 64/97/63 63/98/64
f 63/98/64 64/97/63 2/2/2 1/1/1
f 1/99/1 3/100/4 5/101/6 7/102/8 9/103/10 11/104/12 13/105/14 15/106/16 17/107/18 19/108/20 21/109/22 23/110/24 25/111/26 27/112/28 29/113/30 31/114/32 33/115/34 35/116/36 37/117/38 39/118/40 41/119/42 43/120/44 45/121/46 47/122/48 49/123/50 51/124/52 53/125/54 55/126/56 57/127/58 59/128/60 61/129/62 63/130/64
